<svg id="visual" viewBox="0 0 900 600" width="900" height="600" xmlns="http://www.w3.org/2000/svg" xmlns:xlink="http://www.w3.org/1999/xlink" version="1.1"><g stroke-width="1" stroke-linejoin="bevel"><path d="M492 297L430 186L404 313Z" fill="#fa9526" stroke="#fa9526"></path><path d="M492 297L476 187L430 186Z" fill="#fcaf3c" stroke="#fcaf3c"></path><path d="M476 187L428 126L430 186Z" fill="#f9871c" stroke="#f9871c"></path><path d="M430 186L277 199L404 313Z" fill="#fa8e21" stroke="#fa8e21"></path><path d="M438 428L534 380L492 297Z" fill="#f9871c" stroke="#f9871c"></path><path d="M492 297L635 162L476 187Z" fill="#fb9c2b" stroke="#fb9c2b"></path><path d="M476 187L486 100L428 126Z" fill="#fca936" stroke="#fca936"></path><path d="M604 89L486 100L476 187Z" fill="#fa8e21" stroke="#fa8e21"></path><path d="M428 126L277 199L430 186Z" fill="#f98018" stroke="#f98018"></path><path d="M272 431L438 428L404 313Z" fill="#fca936" stroke="#fca936"></path><path d="M404 313L438 428L492 297Z" fill="#fca936" stroke="#fca936"></path><path d="M277 199L266 298L404 313Z" fill="#fa9526" stroke="#fa9526"></path><path d="M534 380L621 330L492 297Z" fill="#f9871c" stroke="#f9871c"></path><path d="M621 330L635 162L492 297Z" fill="#f87111" stroke="#f87111"></path><path d="M534 380L621 385L621 330Z" fill="#f9871c" stroke="#f9871c"></path><path d="M621 330L673 319L635 162Z" fill="#fa9526" stroke="#fa9526"></path><path d="M594 505L621 385L534 380Z" fill="#fba230" stroke="#fba230"></path><path d="M426 0L309 62L428 126Z" fill="#fca936" stroke="#fca936"></path><path d="M428 126L309 62L277 199Z" fill="#fca936" stroke="#fca936"></path><path d="M635 162L604 89L476 187Z" fill="#fa9526" stroke="#fa9526"></path><path d="M486 100L426 0L428 126Z" fill="#f7690f" stroke="#f7690f"></path><path d="M621 385L673 319L621 330Z" fill="#fa9526" stroke="#fa9526"></path><path d="M266 298L272 431L404 313Z" fill="#fb9c2b" stroke="#fb9c2b"></path><path d="M673 319L671 169L635 162Z" fill="#f9871c" stroke="#f9871c"></path><path d="M635 162L712 115L604 89Z" fill="#fba230" stroke="#fba230"></path><path d="M475 0L426 0L486 100Z" fill="#f7690f" stroke="#f7690f"></path><path d="M604 89L475 0L486 100Z" fill="#f87915" stroke="#f87915"></path><path d="M272 431L404 509L438 428Z" fill="#f98018" stroke="#f98018"></path><path d="M438 428L481 511L534 380Z" fill="#f98018" stroke="#f98018"></path><path d="M404 509L481 511L438 428Z" fill="#f87111" stroke="#f87111"></path><path d="M160 183L170 327L266 298Z" fill="#fba230" stroke="#fba230"></path><path d="M266 298L183 408L272 431Z" fill="#fb9c2b" stroke="#fb9c2b"></path><path d="M160 183L266 298L277 199Z" fill="#f7690f" stroke="#f7690f"></path><path d="M180 101L160 183L277 199Z" fill="#fba230" stroke="#fba230"></path><path d="M481 511L594 505L534 380Z" fill="#f9871c" stroke="#f9871c"></path><path d="M621 385L733 431L673 319Z" fill="#fcaf3c" stroke="#fcaf3c"></path><path d="M170 327L183 408L266 298Z" fill="#f7690f" stroke="#f7690f"></path><path d="M272 431L327 532L404 509Z" fill="#f87111" stroke="#f87111"></path><path d="M165 478L327 532L272 431Z" fill="#fa9526" stroke="#fa9526"></path><path d="M404 509L465 600L481 511Z" fill="#f87915" stroke="#f87915"></path><path d="M481 511L612 600L594 505Z" fill="#fa8e21" stroke="#fa8e21"></path><path d="M309 62L180 101L277 199Z" fill="#f98018" stroke="#f98018"></path><path d="M261 0L180 101L309 62Z" fill="#fa8e21" stroke="#fa8e21"></path><path d="M671 169L712 115L635 162Z" fill="#fba230" stroke="#fba230"></path><path d="M604 89L633 0L475 0Z" fill="#f98018" stroke="#f98018"></path><path d="M768 218L712 115L671 169Z" fill="#fca936" stroke="#fca936"></path><path d="M426 0L261 0L309 62Z" fill="#f87111" stroke="#f87111"></path><path d="M712 115L633 0L604 89Z" fill="#fa9526" stroke="#fa9526"></path><path d="M826 316L768 218L673 319Z" fill="#fcaf3c" stroke="#fcaf3c"></path><path d="M673 319L768 218L671 169Z" fill="#fa8e21" stroke="#fa8e21"></path><path d="M706 500L733 431L621 385Z" fill="#fcaf3c" stroke="#fcaf3c"></path><path d="M327 532L417 600L404 509Z" fill="#f9871c" stroke="#f9871c"></path><path d="M594 505L706 500L621 385Z" fill="#fb9c2b" stroke="#fb9c2b"></path><path d="M417 600L465 600L404 509Z" fill="#f87915" stroke="#f87915"></path><path d="M183 408L165 478L272 431Z" fill="#f7690f" stroke="#f7690f"></path><path d="M327 532L337 600L417 600Z" fill="#f87111" stroke="#f87111"></path><path d="M100 392L165 478L183 408Z" fill="#f87915" stroke="#f87915"></path><path d="M100 392L183 408L170 327Z" fill="#fba230" stroke="#fba230"></path><path d="M72 132L86 201L160 183Z" fill="#fa9526" stroke="#fa9526"></path><path d="M160 183L75 264L170 327Z" fill="#f87915" stroke="#f87915"></path><path d="M72 132L160 183L180 101Z" fill="#fa9526" stroke="#fa9526"></path><path d="M234 600L337 600L327 532Z" fill="#f98018" stroke="#f98018"></path><path d="M678 600L706 500L594 505Z" fill="#fcaf3c" stroke="#fcaf3c"></path><path d="M86 201L75 264L160 183Z" fill="#fba230" stroke="#fba230"></path><path d="M75 264L100 392L170 327Z" fill="#f98018" stroke="#f98018"></path><path d="M768 218L786 132L712 115Z" fill="#fba230" stroke="#fba230"></path><path d="M712 115L708 0L633 0Z" fill="#f98018" stroke="#f98018"></path><path d="M900 176L786 132L768 218Z" fill="#f87915" stroke="#f87915"></path><path d="M815 0L708 0L712 115Z" fill="#f98018" stroke="#f98018"></path><path d="M261 0L165 0L180 101Z" fill="#fa8e21" stroke="#fa8e21"></path><path d="M104 0L72 132L180 101Z" fill="#fcaf3c" stroke="#fcaf3c"></path><path d="M0 183L0 294L75 264Z" fill="#fca936" stroke="#fca936"></path><path d="M465 600L612 600L481 511Z" fill="#fa9526" stroke="#fa9526"></path><path d="M100 392L130 491L165 478Z" fill="#fa9526" stroke="#fa9526"></path><path d="M165 478L234 600L327 532Z" fill="#f87111" stroke="#f87111"></path><path d="M817 382L673 319L733 431Z" fill="#f7690f" stroke="#f7690f"></path><path d="M817 382L826 316L673 319Z" fill="#fa8e21" stroke="#fa8e21"></path><path d="M812 494L733 431L706 500Z" fill="#f7690f" stroke="#f7690f"></path><path d="M812 494L817 382L733 431Z" fill="#f9871c" stroke="#f9871c"></path><path d="M118 600L234 600L165 478Z" fill="#fba230" stroke="#fba230"></path><path d="M165 0L104 0L180 101Z" fill="#fca936" stroke="#fca936"></path><path d="M612 600L678 600L594 505Z" fill="#f7690f" stroke="#f7690f"></path><path d="M100 392L0 524L130 491Z" fill="#fa9526" stroke="#fa9526"></path><path d="M75 264L0 294L100 392Z" fill="#f98018" stroke="#f98018"></path><path d="M0 183L75 264L86 201Z" fill="#fa9526" stroke="#fa9526"></path><path d="M0 183L86 201L72 132Z" fill="#fba230" stroke="#fba230"></path><path d="M774 600L812 494L706 500Z" fill="#f7690f" stroke="#f7690f"></path><path d="M900 396L900 278L826 316Z" fill="#fba230" stroke="#fba230"></path><path d="M0 127L0 183L72 132Z" fill="#f87111" stroke="#f87111"></path><path d="M900 139L815 0L786 132Z" fill="#fba230" stroke="#fba230"></path><path d="M786 132L815 0L712 115Z" fill="#fcaf3c" stroke="#fcaf3c"></path><path d="M0 0L0 127L72 132Z" fill="#fca936" stroke="#fca936"></path><path d="M0 294L0 387L100 392Z" fill="#f98018" stroke="#f98018"></path><path d="M130 491L118 600L165 478Z" fill="#fa9526" stroke="#fa9526"></path><path d="M900 396L826 316L817 382Z" fill="#f7690f" stroke="#f7690f"></path><path d="M826 316L900 278L768 218Z" fill="#f87915" stroke="#f87915"></path><path d="M900 278L900 176L768 218Z" fill="#f9871c" stroke="#f9871c"></path><path d="M0 524L118 600L130 491Z" fill="#f9871c" stroke="#f9871c"></path><path d="M900 176L900 139L786 132Z" fill="#f87111" stroke="#f87111"></path><path d="M678 600L774 600L706 500Z" fill="#fa8e21" stroke="#fa8e21"></path><path d="M812 494L900 396L817 382Z" fill="#fb9c2b" stroke="#fb9c2b"></path><path d="M900 499L900 396L812 494Z" fill="#fcaf3c" stroke="#fcaf3c"></path><path d="M104 0L0 0L72 132Z" fill="#fa9526" stroke="#fa9526"></path><path d="M0 387L0 524L100 392Z" fill="#fb9c2b" stroke="#fb9c2b"></path><path d="M900 600L900 499L812 494Z" fill="#fba230" stroke="#fba230"></path><path d="M900 139L900 0L815 0Z" fill="#f87111" stroke="#f87111"></path><path d="M0 524L0 600L118 600Z" fill="#f9871c" stroke="#f9871c"></path><path d="M774 600L900 600L812 494Z" fill="#fa8e21" stroke="#fa8e21"></path></g></svg>